<svg width="25" height="22" viewBox="0 0 25 22" xmlns="http://www.w3.org/2000/svg">
  <path d="m0,6.41335l0,8.92607l5.08139,0l7.60683,6.24689l0.00452,-21.41985l-7.60796,6.24689l-5.08478,0zm15.60931,-1.02645c-0.44427,-0.43975 -1.15759,-0.43975 -1.59959,0.00226c-0.44088,0.44201 -0.44088,1.15759 0.00226,1.60072l0,-0.00226c0.97558,0.97671 1.57698,2.3163 1.57698,3.80511c0,1.48768 -0.60027,2.82274 -1.57472,3.79946c-0.4454,0.43975 -0.4454,1.15532 -0.00226,1.59959c0.22044,0.22044 0.50983,0.33122 0.79923,0.33122c0.29053,0 0.57992,-0.11078 0.80036,-0.33122c1.38142,-1.37915 2.2383,-3.29527 2.23717,-5.39905c0.00113,-2.1083 -0.85915,-4.02668 -2.23943,-5.40583zm2.59439,-2.59326c-0.44427,-0.44201 -1.15759,-0.44201 -1.59733,0c-0.44314,0.44201 -0.44314,1.15872 0,1.59846c1.63916,1.64029 2.64978,3.89668 2.64978,6.3995c0,2.50056 -1.01063,4.75582 -2.64752,6.39724c-0.44314,0.44088 -0.44314,1.15645 0,1.59846c0.22044,0.22044 0.50983,0.33122 0.80036,0.33122c0.2894,0 0.57879,-0.11078 0.79923,-0.33122c2.04386,-2.04499 3.3111,-4.87791 3.30884,-7.9957c0.00113,-3.12005 -1.26611,-5.95523 -3.31336,-7.99796zm2.46326,-2.46326c-0.44427,-0.44201 -1.15872,-0.43975 -1.59846,0.00226c-0.44201,0.43975 -0.44201,1.15645 0.00226,1.59733l-0.00226,0c2.27108,2.27108 3.67172,5.39566 3.67172,8.86163c0,3.46258 -1.40063,6.58829 -3.66945,8.8605c-0.44201,0.44088 -0.44201,1.15645 0.00226,1.59959c0.21931,0.21931 0.5087,0.32896 0.7981,0.32896s0.57992,-0.11078 0.80036,-0.33122c2.67126,-2.67465 4.33077,-6.37915 4.32851,-10.45783c0.00226,-4.08207 -1.65725,-7.7877 -4.33303,-10.46122z" fill="#00bd2d"/>
</svg>
